<svg xmlns="http://www.w3.org/2000/svg" version="1.1" id="Layer_1" x="0" y="0" viewBox="0 0 32 32" xml:space="preserve"><style>.st1{fill:#7fb241}</style><g id="XMLID_3443_"><g id="XMLID_3083_"><path id="XMLID_3085_" d="m19.288 22.645-7.267 7.357H32l-7.267-7.357a3.817 3.817 0 0 0-5.445 0z" fill="#DF9D27" style="fill:#df9d27"/><path id="XMLID_3152_" d="M9.084 20.805 0 30.002h24.975l-9.084-9.196a4.773 4.773 0 0 0-6.807-.001z" fill="#E8AF2A" style="fill:#e8af2a"/><path id="XMLID_3438_" class="st1" d="M6.757 18.594a.74.74 0 0 0-.739.739v1.385H4.827v-3.351a.918.918 0 1 0-1.836 0v6.419H1.749V22.4a.74.74 0 0 0-1.478 0v2.124a.74.74 0 0 0 .739.739h1.98v4.398h1.837v-7.465h1.93a.74.74 0 0 0 .739-.739v-2.124a.74.74 0 0 0-.739-.739z" fill="#7FB241"/><path id="XMLID_3567_" d="M32 31.27v-4.311c-10.667-1.988-21.333 3.572-32 1.783v2.528h32z" fill="#F3C432" style="fill:#f3c432"/><g id="XMLID_3437_"><g id="XMLID_3572_"><path id="XMLID_3573_" class="st1" d="M30.958 23.833h-1.122a.29.29 0 1 1 0-.582h.831v-.546a.29.29 0 1 1 .582 0v.837a.29.29 0 0 1-.291.291z" fill="#7FB241"/></g><g id="XMLID_3570_"><path id="XMLID_3571_" class="st1" d="M29.836 25.042h-1.142a.29.29 0 0 1-.291-.291v-.837a.29.29 0 1 1 .582 0v.546h.851a.29.29 0 1 1 0 .582z" fill="#7FB241"/></g><g id="XMLID_3568_"><path id="XMLID_3569_" class="st1" d="M30.198 27.812V21.93a.362.362 0 1 0-.724 0v5.881h.724z" fill="#7FB241"/></g></g></g><circle id="XMLID_3168_" cx="6.716" cy="4.846" r="4.116" fill="#FFF100" style="fill:#fff100"/></g></svg>