<svg xmlns="http://www.w3.org/2000/svg" width="50" height="50" enable-background="new 0 0 50 50" viewBox="0 0 50 50"><rect width="4" height="9" x="9" y="29" fill="#C37455"/><rect width="2" height="9" x="9" y="29" opacity=".15"/><rect width="4" height="9" x="19" y="23" fill="#C37455"/><rect width="2" height="9" x="21" y="23" opacity=".15"/><polygon fill="#377733" points="21 15.1 21 27 9.5 27"/><polygon fill="#377733" points="21 11.8 21 22 10.9 22"/><polygon fill="#377733" points="21 8.4 21 17 12.2 17"/><polygon fill="#377733" points="21 12 14.3 12 21 5"/><polygon fill="#377733" points="21 27 32.5 27 21 15.1"/><polygon fill="#377733" points="21 22 31.1 22 21 11.8"/><polygon fill="#377733" points="21 17 29.8 17 21 8.4"/><polygon fill="#377733" points="21 12 28.4 12 21 5"/><polygon points="27.7 22 31.1 22 26.4 17 29.8 17 25 12 28.4 12 21 5 21 8.4 21 11.8 21 12.4 21 15.1 21 17.2 21 21.9 21 27 32.5 27" opacity=".15"/><polygon fill="#C37455" points="40.4 41 31.2 41 33.4 27.4 38.2 27.4"/><polygon points="40.4 41 35.8 41 35.8 27.4 38.2 27.4" opacity=".15"/><path fill="#5BA558" d="M44.7,21.3c0.9-1.1,1.5-2.4,1.5-3.9c0-3.3-2.7-6-6-6c-0.2,0-0.5,0-0.7,0C38.9,10,37.5,9,35.8,9
		c-2.2,0-3.9,1.7-4,3.9c-0.7-0.4-1.5-0.7-2.4-0.7c-2.7,0-4.8,2.1-4.8,4.8c0,1.1,0.4,2.1,1,2.9C24,21,23,22.9,23,25
		c0,3.5,2.9,6.4,6.4,6.4c1.8,0,3.4-0.7,4.6-1.9c0.6,0.2,1.2,0.3,1.8,0.3c0.5,0,1-0.1,1.5-0.2c1,1.1,2.5,1.8,4.1,1.8
		c3.1,0,5.6-2.5,5.6-5.6C47,24,46.1,22.3,44.7,21.3z"/><g opacity=".15"><path d="M25.6,19.9c0,0,3.6-2,6.5,0.3c0,0-1.5-3.3-7.4-2.3C24.7,17.9,25,19.3,25.6,19.9z"/></g><g opacity=".15"><path d="M39.5,11.4c0,0-2.7,0.3-3.7,3.4c0,0-0.4-3,2.6-4.8C38.4,10,39.3,10.9,39.5,11.4z"/></g><g opacity=".15"><path d="M44.7,21.3c0.9-1,1.5-2.4,1.5-3.9c0-2.8-2-5.2-4.6-5.8c0.8,1,1.4,2.2,1.4,3.6c0,0.6-0.1,1.2-0.3,1.8
		c-4.3-1.1-6.4,2.1-6.4,2.1s3.5-1.5,5.6,0l0,0c1.1,1,1.8,2.4,1.8,3.9c0,2.9-2.3,5.2-5.2,5.2c-1.5,0-2.9-0.6-3.8-1.7
		c-0.4,0.1-0.9,0.2-1.4,0.2c-0.6,0-1.2-0.1-1.7-0.3c-1.1,1.1-2.6,1.8-4.2,1.8c-1.6,0-3.1-0.6-4.2-1.7c0.7,2.8,3.2,4.9,6.2,4.9
		c1.8,0,3.4-0.7,4.6-1.9c0.6,0.2,1.2,0.3,1.8,0.3c0.5,0,1-0.1,1.5-0.2c1,1.1,2.5,1.8,4.1,1.8c3.1,0,5.6-2.5,5.6-5.6
		C47,24,46.1,22.3,44.7,21.3z"/></g><g><circle cx="11" cy="23" r="5" fill="#5BA558"/></g><g><path fill="#5BA558" d="M7,23c1.1,0,2.1,0.5,2.9,1.2c0.9-1.3,2.4-2.2,4.1-2.2c2.8,0,5,2.2,5,5s-2.2,5-5,5c-1.7,0-3.2-0.9-4.1-2.2
		C9.1,30.5,8.1,31,7,31c-2.2,0-4-1.8-4-4C3,24.8,4.8,23,7,23z"/></g><g opacity=".15"><path d="M3,27c0,2.2,1.8,4,4,4c1.1,0,2.1-0.5,2.8-1.2c0.9,1.3,2.4,2.2,4.2,2.2c2.3,0,4.3-1.6,4.9-3.8C17.9,29.3,16.5,30,15,30
		c-1.7,0-3.2-0.9-4.2-2.2C10.1,28.5,9.1,29,8,29c-2.2,0-4-1.8-4-4c0-0.2,0-0.5,0.1-0.7C3.4,25,3,26,3,27z"/></g><g><rect width="4" height="9" x="9" y="29" fill="#C37455"/></g><g opacity=".15"><rect width="2" height="9" x="9" y="29"/></g><g><path fill="#5BA558" d="M7,23c1.1,0,2.1,0.5,2.9,1.2c0.9-1.3,2.4-2.2,4.1-2.2c2.8,0,5,2.2,5,5s-2.2,5-5,5c-1.7,0-3.2-0.9-4.1-2.2
		C9.1,30.5,8.1,31,7,31c-2.2,0-4-1.8-4-4C3,24.8,4.8,23,7,23z"/></g><g opacity=".15"><path d="M3,27c0,2.2,1.8,4,4,4c1.1,0,2.1-0.5,2.8-1.2c0.9,1.3,2.4,2.2,4.2,2.2c2.3,0,4.3-1.6,4.9-3.8C17.9,29.3,16.5,30,15,30
		c-1.7,0-3.2-0.9-4.2-2.2C10.1,28.5,9.1,29,8,29c-2.2,0-4-1.8-4-4c0-0.2,0-0.5,0.1-0.7C3.4,25,3,26,3,27z"/></g></svg>